<svg width="32" height="31" viewBox="0 0 32 31" fill="none" xmlns="http://www.w3.org/2000/svg">
<g clip-path="url(#clip0_114_910)">
<path d="M30.9975 0.465946C31.4841 0.952533 31.4841 1.74143 30.9975 2.22802L2.64312 30.5823C2.15654 31.069 1.36763 31.069 0.88105 30.5823C0.394468 30.0957 0.394468 29.3069 0.88105 28.8203L29.2354 0.465946C29.722 -0.0206309 30.5108 -0.0206309 30.9975 0.465946Z" fill="#FF6347"/>
<path d="M0.88105 0.465892C1.36763 -0.0206952 2.15654 -0.020694 2.64312 0.465892L30.9975 28.8202C31.4841 29.3068 31.4841 30.0957 30.9975 30.5823C30.5108 31.0688 29.722 31.0688 29.2354 30.5823L0.88105 2.22796C0.394468 1.74138 0.394468 0.952469 0.88105 0.465892Z" fill="#FF6347"/>
</g>
<defs>
<clipPath id="clip0_114_910">
<rect width="32" height="31" fill="white"/>
</clipPath>
</defs>
</svg>
